<mxfile host="app.diagrams.net" modified="2024-03-18T20:23:31.214Z" agent="Mozilla/5.0 (Windows NT 10.0; Win64; x64) AppleWebKit/537.36 (KHTML, like Gecko) Chrome/120.0.0.0 YaBrowser/24.1.0.0 Safari/537.36" version="24.0.6" etag="VBBuEYO5vPLiO4gTfa6S" type="github">
  <diagram name="Страница — 1" id="Q6oGJT2M6feUB9S8YeGF">
    <mxGraphModel>
      <root>
        <mxCell id="0" />
        <mxCell id="1" parent="0" />
      </root>
    </mxGraphModel>
  </diagram>
</mxfile>
